<svg fill="none" height="1290" viewBox="0 0 1191 1290" width="1191" xmlns="http://www.w3.org/2000/svg"><rect fill="#f8f8f8" height="1290" rx="20" width="1191"/><path d="M216.17 95.6364 229.798 136.852H230.335L243.938 95.6364H254.369L235.909 148H224.199L205.764 95.6364H216.17ZM260.834 148V95.6364H280.471C284.493 95.6364 287.868 96.3864 290.596 97.8864 293.34 99.3864 295.411 101.449 296.809 104.074 298.224 106.682 298.931 109.648 298.931 112.972 298.931 116.33 298.224 119.312 296.809 121.92 295.394 124.528 293.306 126.582 290.545 128.082 287.783 129.565 284.383 130.307 280.343 130.307H267.329V122.509H279.064C281.417 122.509 283.343 122.099 284.843 121.281 286.343 120.463 287.451 119.338 288.167 117.906 288.9 116.474 289.266 114.83 289.266 112.972 289.266 111.114 288.9 109.477 288.167 108.062 287.451 106.648 286.334 105.548 284.817 104.764 283.317 103.963 281.383 103.562 279.013 103.562H270.32V148H260.834ZM349.77 95.6364V148H341.332L316.659 112.332H316.224V148H306.738V95.6364H315.227L339.875 131.33H340.335V95.6364H349.77ZM401.723 131.483V108.727H410.979V148H402.004V141.02H401.595C400.709 143.219 399.251 145.017 397.223 146.415 395.212 147.812 392.732 148.511 389.783 148.511 387.209 148.511 384.933 147.94 382.956 146.798 380.996 145.639 379.462 143.96 378.354 141.761 377.246 139.545 376.692 136.869 376.692 133.733V108.727H385.947V132.301C385.947 134.79 386.629 136.767 387.993 138.233 389.357 139.699 391.146 140.432 393.362 140.432 394.726 140.432 396.047 140.099 397.325 139.435 398.604 138.77 399.652 137.781 400.47 136.469 401.305 135.139 401.723 133.477 401.723 131.483ZM451.104 119.108 442.667 120.028C442.428 119.176 442.01 118.375 441.414 117.625 440.834 116.875 440.05 116.27 439.062 115.81 438.073 115.349 436.863 115.119 435.431 115.119 433.505 115.119 431.885 115.537 430.573 116.372 429.277 117.207 428.638 118.29 428.655 119.619 428.638 120.761 429.056 121.69 429.908 122.406 430.777 123.122 432.209 123.71 434.204 124.17L440.902 125.602C444.618 126.403 447.38 127.673 449.187 129.412 451.01 131.151 451.931 133.426 451.948 136.239 451.931 138.71 451.206 140.892 449.775 142.784 448.36 144.659 446.391 146.125 443.868 147.182 441.346 148.239 438.448 148.767 435.175 148.767 430.368 148.767 426.499 147.761 423.567 145.75 420.635 143.722 418.888 140.901 418.326 137.287L427.351 136.418C427.76 138.19 428.63 139.528 429.959 140.432 431.289 141.335 433.019 141.787 435.15 141.787 437.349 141.787 439.113 141.335 440.442 140.432 441.789 139.528 442.462 138.412 442.462 137.082 442.462 135.957 442.027 135.028 441.158 134.295 440.306 133.562 438.976 133 437.17 132.608L430.471 131.202C426.704 130.418 423.917 129.097 422.11 127.239 420.303 125.364 419.408 122.994 419.425 120.131 419.408 117.71 420.064 115.614 421.394 113.841 422.741 112.051 424.607 110.67 426.993 109.699 429.397 108.71 432.167 108.216 435.303 108.216 439.905 108.216 443.527 109.196 446.17 111.156 448.829 113.116 450.474 115.767 451.104 119.108ZM470.449 148.793C467.961 148.793 465.719 148.349 463.725 147.463 461.747 146.56 460.179 145.23 459.02 143.474 457.878 141.719 457.307 139.554 457.307 136.98 457.307 134.764 457.716 132.932 458.534 131.483 459.353 130.034 460.469 128.875 461.884 128.006 463.299 127.136 464.892 126.48 466.665 126.037 468.455 125.577 470.304 125.244 472.213 125.04 474.515 124.801 476.381 124.588 477.813 124.401 479.245 124.196 480.284 123.889 480.932 123.48 481.597 123.054 481.929 122.398 481.929 121.511V121.358C481.929 119.432 481.358 117.94 480.216 116.884 479.074 115.827 477.429 115.298 475.282 115.298 473.015 115.298 471.216 115.793 469.887 116.781 468.574 117.77 467.688 118.937 467.228 120.284L458.586 119.057C459.267 116.67 460.392 114.676 461.961 113.074 463.529 111.455 465.446 110.244 467.713 109.443 469.98 108.625 472.486 108.216 475.23 108.216 477.122 108.216 479.006 108.438 480.881 108.881 482.756 109.324 484.469 110.057 486.02 111.08 487.571 112.085 488.816 113.457 489.753 115.196 490.708 116.935 491.185 119.108 491.185 121.716V148H482.287V142.605H481.98C481.418 143.696 480.625 144.719 479.603 145.673 478.597 146.611 477.327 147.369 475.793 147.949 474.276 148.511 472.495 148.793 470.449 148.793ZM472.853 141.991C474.711 141.991 476.321 141.625 477.685 140.892 479.049 140.142 480.097 139.153 480.83 137.926 481.58 136.699 481.955 135.361 481.955 133.912V129.284C481.665 129.523 481.171 129.744 480.472 129.949 479.79 130.153 479.023 130.332 478.171 130.486 477.319 130.639 476.475 130.776 475.64 130.895 474.804 131.014 474.08 131.116 473.466 131.202 472.086 131.389 470.85 131.696 469.759 132.122 468.668 132.548 467.807 133.145 467.176 133.912 466.546 134.662 466.23 135.634 466.23 136.827 466.23 138.531 466.853 139.818 468.097 140.688 469.341 141.557 470.926 141.991 472.853 141.991ZM517.139 163.545C513.816 163.545 510.96 163.094 508.574 162.19 506.188 161.304 504.27 160.111 502.821 158.611 501.372 157.111 500.367 155.449 499.804 153.625L508.139 151.605C508.514 152.372 509.06 153.131 509.776 153.881 510.492 154.648 511.455 155.278 512.665 155.773 513.892 156.284 515.435 156.54 517.293 156.54 519.918 156.54 522.091 155.901 523.813 154.622 525.534 153.361 526.395 151.281 526.395 148.384V140.943H525.935C525.458 141.898 524.759 142.878 523.838 143.884 522.935 144.889 521.733 145.733 520.233 146.415 518.75 147.097 516.884 147.438 514.634 147.438 511.617 147.438 508.881 146.73 506.426 145.315 503.989 143.884 502.046 141.753 500.597 138.923 499.165 136.077 498.449 132.514 498.449 128.236 498.449 123.923 499.165 120.284 500.597 117.318 502.046 114.335 503.997 112.077 506.452 110.543 508.906 108.991 511.642 108.216 514.659 108.216 516.96 108.216 518.852 108.608 520.335 109.392 521.835 110.159 523.029 111.088 523.915 112.179 524.801 113.253 525.475 114.267 525.935 115.222H526.446V108.727H535.574V148.639C535.574 151.997 534.773 154.776 533.171 156.974 531.568 159.173 529.378 160.818 526.6 161.909 523.821 163 520.668 163.545 517.139 163.545ZM517.216 140.176C519.176 140.176 520.847 139.699 522.227 138.744 523.608 137.79 524.656 136.418 525.372 134.628 526.088 132.838 526.446 130.69 526.446 128.185 526.446 125.713 526.088 123.548 525.372 121.69 524.673 119.832 523.634 118.392 522.253 117.369 520.889 116.33 519.21 115.81 517.216 115.81 515.154 115.81 513.432 116.347 512.051 117.42 510.671 118.494 509.631 119.969 508.932 121.844 508.233 123.702 507.884 125.815 507.884 128.185 507.884 130.588 508.233 132.693 508.932 134.5 509.648 136.29 510.696 137.687 512.077 138.693 513.475 139.682 515.188 140.176 517.216 140.176ZM562.014 148.767C558.077 148.767 554.676 147.949 551.812 146.312 548.966 144.659 546.776 142.324 545.241 139.307 543.707 136.273 542.94 132.702 542.94 128.594 542.94 124.554 543.707 121.009 545.241 117.957 546.793 114.889 548.957 112.503 551.736 110.798 554.514 109.077 557.778 108.216 561.528 108.216 563.949 108.216 566.233 108.608 568.381 109.392 570.545 110.159 572.455 111.352 574.108 112.972 575.778 114.591 577.091 116.653 578.045 119.159 579 121.648 579.477 124.614 579.477 128.057V130.895H547.287V124.656H570.605C570.588 122.884 570.205 121.307 569.455 119.926 568.705 118.528 567.656 117.429 566.31 116.628 564.98 115.827 563.429 115.426 561.656 115.426 559.764 115.426 558.102 115.886 556.67 116.807 555.239 117.71 554.122 118.903 553.321 120.386 552.537 121.852 552.136 123.463 552.119 125.219V130.665C552.119 132.949 552.537 134.909 553.372 136.545 554.207 138.165 555.375 139.409 556.875 140.278 558.375 141.131 560.131 141.557 562.142 141.557 563.489 141.557 564.707 141.369 565.798 140.994 566.889 140.602 567.835 140.031 568.636 139.281 569.437 138.531 570.043 137.602 570.452 136.494L579.094 137.466C578.548 139.75 577.508 141.744 575.974 143.449 574.457 145.136 572.514 146.449 570.145 147.386 567.776 148.307 565.065 148.767 562.014 148.767ZM604.303 148V108.727H613.559V148H604.303ZM608.956 103.153C607.49 103.153 606.229 102.668 605.172 101.696 604.115 100.707 603.587 99.5227 603.587 98.142 603.587 96.7443 604.115 95.5597 605.172 94.5881 606.229 93.5994 607.49 93.1051 608.956 93.1051 610.439 93.1051 611.701 93.5994 612.74 94.5881 613.797 95.5597 614.326 96.7443 614.326 98.142 614.326 99.5227 613.797 100.707 612.74 101.696 611.701 102.668 610.439 103.153 608.956 103.153ZM631.9 124.989V148H622.644V108.727H631.491V115.401H631.951C632.855 113.202 634.295 111.455 636.272 110.159 638.266 108.864 640.73 108.216 643.661 108.216 646.372 108.216 648.732 108.795 650.744 109.955 652.772 111.114 654.34 112.793 655.448 114.991 656.573 117.19 657.127 119.858 657.11 122.994V148H647.855V124.426C647.855 121.801 647.173 119.747 645.809 118.264 644.462 116.781 642.596 116.04 640.21 116.04 638.59 116.04 637.15 116.398 635.889 117.114 634.644 117.812 633.664 118.827 632.948 120.156 632.249 121.486 631.9 123.097 631.9 124.989ZM690.648 148H680.523L698.958 95.6364H710.668L729.128 148H719.003L705.018 106.375H704.608L690.648 148ZM690.981 127.469H718.594V135.088H690.981V127.469ZM760.216 131.483V108.727H769.471V148H760.497V141.02H760.088C759.201 143.219 757.744 145.017 755.716 146.415 753.704 147.812 751.224 148.511 748.275 148.511 745.701 148.511 743.426 147.94 741.448 146.798 739.488 145.639 737.954 143.96 736.846 141.761 735.738 139.545 735.184 136.869 735.184 133.733V108.727H744.44V132.301C744.44 134.79 745.122 136.767 746.485 138.233 747.849 139.699 749.639 140.432 751.855 140.432 753.218 140.432 754.539 140.099 755.818 139.435 757.096 138.77 758.144 137.781 758.963 136.469 759.798 135.139 760.216 133.477 760.216 131.483ZM809.597 119.108 801.159 120.028C800.921 119.176 800.503 118.375 799.906 117.625 799.327 116.875 798.543 116.27 797.554 115.81 796.565 115.349 795.355 115.119 793.923 115.119 791.997 115.119 790.378 115.537 789.065 116.372 787.77 117.207 787.131 118.29 787.148 119.619 787.131 120.761 787.548 121.69 788.401 122.406 789.27 123.122 790.702 123.71 792.696 124.17L799.395 125.602C803.111 126.403 805.872 127.673 807.679 129.412 809.503 131.151 810.423 133.426 810.44 136.239 810.423 138.71 809.699 140.892 808.267 142.784 806.852 144.659 804.884 146.125 802.361 147.182 799.838 148.239 796.94 148.767 793.668 148.767 788.861 148.767 784.992 147.761 782.06 145.75 779.128 143.722 777.381 140.901 776.818 137.287L785.844 136.418C786.253 138.19 787.122 139.528 788.452 140.432 789.781 141.335 791.511 141.787 793.642 141.787 795.841 141.787 797.605 141.335 798.935 140.432 800.281 139.528 800.955 138.412 800.955 137.082 800.955 135.957 800.52 135.028 799.651 134.295 798.798 133.562 797.469 133 795.662 132.608L788.963 131.202C785.196 130.418 782.409 129.097 780.602 127.239 778.796 125.364 777.901 122.994 777.918 120.131 777.901 117.71 778.557 115.614 779.886 113.841 781.233 112.051 783.1 110.67 785.486 109.699 787.889 108.71 790.659 108.216 793.796 108.216 798.398 108.216 802.02 109.196 804.662 111.156 807.321 113.116 808.966 115.767 809.597 119.108ZM837.251 108.727V115.886H814.675V108.727H837.251ZM820.249 99.3182H829.504V136.188C829.504 137.432 829.692 138.386 830.067 139.051 830.459 139.699 830.97 140.142 831.601 140.381 832.231 140.619 832.93 140.739 833.697 140.739 834.277 140.739 834.805 140.696 835.283 140.611 835.777 140.526 836.152 140.449 836.408 140.381L837.967 147.616C837.473 147.787 836.766 147.974 835.845 148.179 834.942 148.384 833.834 148.503 832.521 148.537 830.203 148.605 828.115 148.256 826.257 147.489 824.399 146.705 822.925 145.494 821.834 143.858 820.76 142.222 820.231 140.176 820.249 137.722V99.3182ZM844.56 148V108.727H853.535V115.273H853.944C854.66 113.006 855.887 111.259 857.625 110.031 859.381 108.787 861.384 108.165 863.634 108.165 864.145 108.165 864.716 108.19 865.347 108.241 865.995 108.276 866.532 108.335 866.958 108.42V116.935C866.566 116.798 865.944 116.679 865.091 116.577 864.256 116.457 863.446 116.398 862.662 116.398 860.975 116.398 859.458 116.764 858.111 117.497 856.782 118.213 855.733 119.21 854.966 120.489 854.199 121.767 853.816 123.241 853.816 124.912V148H844.56ZM883.273 148.793C880.784 148.793 878.543 148.349 876.549 147.463 874.571 146.56 873.003 145.23 871.844 143.474 870.702 141.719 870.131 139.554 870.131 136.98 870.131 134.764 870.54 132.932 871.358 131.483 872.176 130.034 873.293 128.875 874.708 128.006 876.122 127.136 877.716 126.48 879.489 126.037 881.279 125.577 883.128 125.244 885.037 125.04 887.338 124.801 889.205 124.588 890.637 124.401 892.068 124.196 893.108 123.889 893.756 123.48 894.421 123.054 894.753 122.398 894.753 121.511V121.358C894.753 119.432 894.182 117.94 893.04 116.884 891.898 115.827 890.253 115.298 888.105 115.298 885.838 115.298 884.04 115.793 882.711 116.781 881.398 117.77 880.512 118.937 880.051 120.284L871.409 119.057C872.091 116.67 873.216 114.676 874.784 113.074 876.353 111.455 878.27 110.244 880.537 109.443 882.804 108.625 885.31 108.216 888.054 108.216 889.946 108.216 891.83 108.438 893.705 108.881 895.58 109.324 897.293 110.057 898.844 111.08 900.395 112.085 901.639 113.457 902.577 115.196 903.532 116.935 904.009 119.108 904.009 121.716V148H895.111V142.605H894.804C894.242 143.696 893.449 144.719 892.426 145.673 891.421 146.611 890.151 147.369 888.617 147.949 887.1 148.511 885.318 148.793 883.273 148.793ZM885.676 141.991C887.534 141.991 889.145 141.625 890.509 140.892 891.872 140.142 892.921 139.153 893.654 137.926 894.404 136.699 894.779 135.361 894.779 133.912V129.284C894.489 129.523 893.995 129.744 893.296 129.949 892.614 130.153 891.847 130.332 890.995 130.486 890.142 130.639 889.299 130.776 888.463 130.895 887.628 131.014 886.904 131.116 886.29 131.202 884.909 131.389 883.674 131.696 882.583 132.122 881.492 132.548 880.631 133.145 880 133.912 879.37 134.662 879.054 135.634 879.054 136.827 879.054 138.531 879.676 139.818 880.921 140.688 882.165 141.557 883.75 141.991 885.676 141.991ZM922.139 95.6364V148H912.884V95.6364H922.139ZM931.225 148V108.727H940.481V148H931.225ZM935.878 103.153C934.413 103.153 933.151 102.668 932.094 101.696 931.038 100.707 930.509 99.5227 930.509 98.142 930.509 96.7443 931.038 95.5597 932.094 94.5881 933.151 93.5994 934.413 93.1051 935.878 93.1051 937.361 93.1051 938.623 93.5994 939.663 94.5881 940.719 95.5597 941.248 96.7443 941.248 98.142 941.248 99.5227 940.719 100.707 939.663 101.696 938.623 102.668 937.361 103.153 935.878 103.153ZM960.868 148.793C958.379 148.793 956.137 148.349 954.143 147.463 952.166 146.56 950.598 145.23 949.439 143.474 948.297 141.719 947.726 139.554 947.726 136.98 947.726 134.764 948.135 132.932 948.953 131.483 949.771 130.034 950.887 128.875 952.302 128.006 953.717 127.136 955.311 126.48 957.084 126.037 958.873 125.577 960.723 125.244 962.632 125.04 964.933 124.801 966.799 124.588 968.231 124.401 969.663 124.196 970.703 123.889 971.351 123.48 972.015 123.054 972.348 122.398 972.348 121.511V121.358C972.348 119.432 971.777 117.94 970.635 116.884 969.493 115.827 967.848 115.298 965.7 115.298 963.433 115.298 961.635 115.793 960.305 116.781 958.993 117.77 958.106 118.937 957.646 120.284L949.004 119.057C949.686 116.67 950.811 114.676 952.379 113.074 953.947 111.455 955.865 110.244 958.132 109.443 960.399 108.625 962.905 108.216 965.649 108.216 967.541 108.216 969.424 108.438 971.299 108.881 973.174 109.324 974.887 110.057 976.439 111.08 977.99 112.085 979.234 113.457 980.172 115.196 981.126 116.935 981.603 119.108 981.603 121.716V148H972.706V142.605H972.399C971.836 143.696 971.044 144.719 970.021 145.673 969.015 146.611 967.745 147.369 966.211 147.949 964.694 148.511 962.913 148.793 960.868 148.793ZM963.271 141.991C965.129 141.991 966.74 141.625 968.103 140.892 969.467 140.142 970.515 139.153 971.248 137.926 971.998 136.699 972.373 135.361 972.373 133.912V129.284C972.084 129.523 971.589 129.744 970.89 129.949 970.209 130.153 969.441 130.332 968.589 130.486 967.737 130.639 966.893 130.776 966.058 130.895 965.223 131.014 964.498 131.116 963.885 131.202 962.504 131.389 961.268 131.696 960.177 132.122 959.086 132.548 958.226 133.145 957.595 133.912 956.964 134.662 956.649 135.634 956.649 136.827 956.649 138.531 957.271 139.818 958.515 140.688 959.76 141.557 961.345 141.991 963.271 141.991Z" fill="#000000"/><path d="M221.099 933V930.614L228.482 922.964C229.27 922.134 229.92 921.406 230.431 920.781 230.95 920.148 231.337 919.548 231.592 918.98 231.848 918.412 231.976 917.808 231.976 917.169 231.976 916.445 231.805 915.82 231.464 915.294 231.124 914.761 230.658 914.353 230.069 914.069 229.479 913.778 228.815 913.632 228.077 913.632 227.295 913.632 226.614 913.792 226.031 914.112 225.449 914.431 225.001 914.882 224.689 915.464 224.376 916.047 224.22 916.729 224.22 917.51H221.077C221.077 916.182 221.383 915.021 221.994 914.026 222.604 913.032 223.442 912.261 224.508 911.714 225.573 911.161 226.784 910.884 228.141 910.884 229.511 910.884 230.719 911.157 231.763 911.704 232.814 912.244 233.634 912.982 234.224 913.92 234.813 914.85 235.108 915.901 235.108 917.073 235.108 917.883 234.955 918.675 234.65 919.449 234.352 920.223 233.83 921.086 233.084 922.038 232.338 922.982 231.301 924.129 229.973 925.479L225.637 930.017V930.177H235.46V933H221.099ZM246.913 933.362C245.23 933.355 243.792 932.911 242.598 932.031 241.405 931.15 240.493 929.868 239.86 928.185 239.228 926.501 238.912 924.474 238.912 922.102 238.912 919.737 239.228 917.716 239.86 916.04 240.5 914.364 241.416 913.085 242.609 912.205 243.809 911.324 245.244 910.884 246.913 910.884 248.582 910.884 250.013 911.327 251.206 912.215 252.4 913.096 253.312 914.374 253.944 916.05 254.583 917.719 254.903 919.737 254.903 922.102 254.903 924.481 254.587 926.512 253.955 928.195 253.323 929.871 252.41 931.153 251.217 932.041 250.024 932.922 248.589 933.362 246.913 933.362ZM246.913 930.518C248.39 930.518 249.544 929.797 250.375 928.355 251.213 926.913 251.632 924.829 251.632 922.102 251.632 920.29 251.441 918.76 251.057 917.51 250.681 916.253 250.137 915.301 249.427 914.655 248.724 914.001 247.886 913.675 246.913 913.675 245.443 913.675 244.289 914.399 243.451 915.848 242.613 917.297 242.19 919.381 242.183 922.102 242.183 923.92 242.371 925.457 242.748 926.714 243.131 927.964 243.674 928.913 244.378 929.559 245.081 930.198 245.926 930.518 246.913 930.518ZM258.502 933V930.614L265.885 922.964C266.674 922.134 267.323 921.406 267.835 920.781 268.353 920.148 268.74 919.548 268.996 918.98 269.252 918.412 269.38 917.808 269.38 917.169 269.38 916.445 269.209 915.82 268.868 915.294 268.527 914.761 268.062 914.353 267.473 914.069 266.883 913.778 266.219 913.632 265.48 913.632 264.699 913.632 264.017 913.792 263.435 914.112 262.853 914.431 262.405 914.882 262.093 915.464 261.78 916.047 261.624 916.729 261.624 917.51H258.481C258.481 916.182 258.786 915.021 259.397 914.026 260.008 913.032 260.846 912.261 261.911 911.714 262.977 911.161 264.188 910.884 265.544 910.884 266.915 910.884 268.122 911.157 269.166 911.704 270.218 912.244 271.038 912.982 271.627 913.92 272.217 914.85 272.512 915.901 272.512 917.073 272.512 917.883 272.359 918.675 272.054 919.449 271.755 920.223 271.233 921.086 270.487 922.038 269.742 922.982 268.705 924.129 267.377 925.479L263.041 930.017V930.177H272.863V933H258.502ZM284.317 933.362C282.633 933.355 281.195 932.911 280.002 932.031 278.809 931.15 277.896 929.868 277.264 928.185 276.632 926.501 276.316 924.474 276.316 922.102 276.316 919.737 276.632 917.716 277.264 916.04 277.903 914.364 278.82 913.085 280.013 912.205 281.213 911.324 282.648 910.884 284.317 910.884 285.986 910.884 287.417 911.327 288.61 912.215 289.803 913.096 290.716 914.374 291.348 916.05 291.987 917.719 292.307 919.737 292.307 922.102 292.307 924.481 291.991 926.512 291.359 928.195 290.727 929.871 289.814 931.153 288.621 932.041 287.428 932.922 285.993 933.362 284.317 933.362ZM284.317 930.518C285.794 930.518 286.948 929.797 287.779 928.355 288.617 926.913 289.036 924.829 289.036 922.102 289.036 920.29 288.844 918.76 288.461 917.51 288.084 916.253 287.541 915.301 286.831 914.655 286.128 914.001 285.29 913.675 284.317 913.675 282.847 913.675 281.692 914.399 280.854 915.848 280.016 917.297 279.594 919.381 279.587 922.102 279.587 923.92 279.775 925.457 280.151 926.714 280.535 927.964 281.078 928.913 281.781 929.559 282.484 930.198 283.329 930.518 284.317 930.518Z" fill="#000000"/><path d="M484.099 933V930.614L491.482 922.964C492.27 922.134 492.92 921.406 493.431 920.781 493.95 920.148 494.337 919.548 494.592 918.98 494.848 918.412 494.976 917.808 494.976 917.169 494.976 916.445 494.805 915.82 494.464 915.294 494.124 914.761 493.658 914.353 493.069 914.069 492.479 913.778 491.815 913.632 491.077 913.632 490.295 913.632 489.614 913.792 489.031 914.112 488.449 914.431 488.001 914.882 487.689 915.464 487.376 916.047 487.22 916.729 487.22 917.51H484.077C484.077 916.182 484.383 915.021 484.994 914.026 485.604 913.032 486.442 912.261 487.508 911.714 488.573 911.161 489.784 910.884 491.141 910.884 492.511 910.884 493.719 911.157 494.763 911.704 495.814 912.244 496.634 912.982 497.224 913.92 497.813 914.85 498.108 915.901 498.108 917.073 498.108 917.883 497.955 918.675 497.65 919.449 497.352 920.223 496.83 921.086 496.084 922.038 495.338 922.982 494.301 924.129 492.973 925.479L488.637 930.017V930.177H498.46V933H484.099ZM509.913 933.362C508.23 933.355 506.792 932.911 505.598 932.031 504.405 931.15 503.493 929.868 502.86 928.185 502.228 926.501 501.912 924.474 501.912 922.102 501.912 919.737 502.228 917.716 502.86 916.04 503.5 914.364 504.416 913.085 505.609 912.205 506.809 911.324 508.244 910.884 509.913 910.884 511.582 910.884 513.013 911.327 514.206 912.215 515.4 913.096 516.312 914.374 516.944 916.05 517.583 917.719 517.903 919.737 517.903 922.102 517.903 924.481 517.587 926.512 516.955 928.195 516.323 929.871 515.41 931.153 514.217 932.041 513.024 932.922 511.589 933.362 509.913 933.362ZM509.913 930.518C511.39 930.518 512.544 929.797 513.375 928.355 514.213 926.913 514.632 924.829 514.632 922.102 514.632 920.29 514.441 918.76 514.057 917.51 513.681 916.253 513.137 915.301 512.427 914.655 511.724 914.001 510.886 913.675 509.913 913.675 508.443 913.675 507.289 914.399 506.451 915.848 505.613 917.297 505.19 919.381 505.183 922.102 505.183 923.92 505.371 925.457 505.748 926.714 506.131 927.964 506.674 928.913 507.378 929.559 508.081 930.198 508.926 930.518 509.913 930.518ZM521.502 933V930.614L528.885 922.964C529.674 922.134 530.323 921.406 530.835 920.781 531.353 920.148 531.74 919.548 531.996 918.98 532.252 918.412 532.38 917.808 532.38 917.169 532.38 916.445 532.209 915.82 531.868 915.294 531.527 914.761 531.062 914.353 530.473 914.069 529.883 913.778 529.219 913.632 528.48 913.632 527.699 913.632 527.017 913.792 526.435 914.112 525.853 914.431 525.405 914.882 525.093 915.464 524.78 916.047 524.624 916.729 524.624 917.51H521.481C521.481 916.182 521.786 915.021 522.397 914.026 523.008 913.032 523.846 912.261 524.911 911.714 525.977 911.161 527.188 910.884 528.544 910.884 529.915 910.884 531.122 911.157 532.166 911.704 533.218 912.244 534.038 912.982 534.627 913.92 535.217 914.85 535.512 915.901 535.512 917.073 535.512 917.883 535.359 918.675 535.054 919.449 534.755 920.223 534.233 921.086 533.487 922.038 532.742 922.982 531.705 924.129 530.377 925.479L526.041 930.017V930.177H535.863V933H521.502ZM547.999 911.182V933H544.696V914.484H544.568L539.348 917.893V914.74L544.792 911.182H547.999Z" fill="#000000"/><path d="M738.099 933V930.614L745.482 922.964C746.27 922.134 746.92 921.406 747.431 920.781 747.95 920.148 748.337 919.548 748.592 918.98 748.848 918.412 748.976 917.808 748.976 917.169 748.976 916.445 748.805 915.82 748.464 915.294 748.124 914.761 747.658 914.353 747.069 914.069 746.479 913.778 745.815 913.632 745.077 913.632 744.295 913.632 743.614 913.792 743.031 914.112 742.449 914.431 742.001 914.882 741.689 915.464 741.376 916.047 741.22 916.729 741.22 917.51H738.077C738.077 916.182 738.383 915.021 738.994 914.026 739.604 913.032 740.442 912.261 741.508 911.714 742.573 911.161 743.784 910.884 745.141 910.884 746.511 910.884 747.719 911.157 748.763 911.704 749.814 912.244 750.634 912.982 751.224 913.92 751.813 914.85 752.108 915.901 752.108 917.073 752.108 917.883 751.955 918.675 751.65 919.449 751.352 920.223 750.83 921.086 750.084 922.038 749.338 922.982 748.301 924.129 746.973 925.479L742.637 930.017V930.177H752.46V933H738.099ZM763.913 933.362C762.23 933.355 760.792 932.911 759.598 932.031 758.405 931.15 757.493 929.868 756.86 928.185 756.228 926.501 755.912 924.474 755.912 922.102 755.912 919.737 756.228 917.716 756.86 916.04 757.5 914.364 758.416 913.085 759.609 912.205 760.809 911.324 762.244 910.884 763.913 910.884 765.582 910.884 767.013 911.327 768.206 912.215 769.4 913.096 770.312 914.374 770.944 916.05 771.583 917.719 771.903 919.737 771.903 922.102 771.903 924.481 771.587 926.512 770.955 928.195 770.323 929.871 769.41 931.153 768.217 932.041 767.024 932.922 765.589 933.362 763.913 933.362ZM763.913 930.518C765.39 930.518 766.544 929.797 767.375 928.355 768.213 926.913 768.632 924.829 768.632 922.102 768.632 920.29 768.441 918.76 768.057 917.51 767.681 916.253 767.137 915.301 766.427 914.655 765.724 914.001 764.886 913.675 763.913 913.675 762.443 913.675 761.289 914.399 760.451 915.848 759.613 917.297 759.19 919.381 759.183 922.102 759.183 923.92 759.371 925.457 759.748 926.714 760.131 927.964 760.674 928.913 761.378 929.559 762.081 930.198 762.926 930.518 763.913 930.518ZM775.502 933V930.614L782.885 922.964C783.674 922.134 784.323 921.406 784.835 920.781 785.353 920.148 785.74 919.548 785.996 918.98 786.252 918.412 786.38 917.808 786.38 917.169 786.38 916.445 786.209 915.82 785.868 915.294 785.527 914.761 785.062 914.353 784.473 914.069 783.883 913.778 783.219 913.632 782.48 913.632 781.699 913.632 781.017 913.792 780.435 914.112 779.853 914.431 779.405 914.882 779.093 915.464 778.78 916.047 778.624 916.729 778.624 917.51H775.481C775.481 916.182 775.786 915.021 776.397 914.026 777.008 913.032 777.846 912.261 778.911 911.714 779.977 911.161 781.188 910.884 782.544 910.884 783.915 910.884 785.122 911.157 786.166 911.704 787.218 912.244 788.038 912.982 788.627 913.92 789.217 914.85 789.512 915.901 789.512 917.073 789.512 917.883 789.359 918.675 789.054 919.449 788.755 920.223 788.233 921.086 787.487 922.038 786.742 922.982 785.705 924.129 784.377 925.479L780.041 930.017V930.177H789.863V933H775.502ZM793.721 933V930.614L801.104 922.964C801.892 922.134 802.542 921.406 803.053 920.781 803.572 920.148 803.959 919.548 804.214 918.98 804.47 918.412 804.598 917.808 804.598 917.169 804.598 916.445 804.428 915.82 804.087 915.294 803.746 914.761 803.28 914.353 802.691 914.069 802.102 913.778 801.437 913.632 800.699 913.632 799.918 913.632 799.236 913.792 798.653 914.112 798.071 914.431 797.624 914.882 797.311 915.464 796.999 916.047 796.842 916.729 796.842 917.51H793.7C793.7 916.182 794.005 915.021 794.616 914.026 795.227 913.032 796.065 912.261 797.13 911.714 798.195 911.161 799.406 910.884 800.763 910.884 802.133 910.884 803.341 911.157 804.385 911.704 805.436 912.244 806.256 912.982 806.846 913.92 807.435 914.85 807.73 915.901 807.73 917.073 807.73 917.883 807.577 918.675 807.272 919.449 806.974 920.223 806.452 921.086 805.706 922.038 804.96 922.982 803.923 924.129 802.595 925.479L798.259 930.017V930.177H808.082V933H793.721Z" fill="#000000"/><path d="M997.099 933V930.614L1004.48 922.964C1005.27 922.134 1005.92 921.406 1006.43 920.781 1006.95 920.148 1007.34 919.548 1007.59 918.98 1007.85 918.412 1007.98 917.808 1007.98 917.169 1007.98 916.445 1007.81 915.82 1007.46 915.294 1007.12 914.761 1006.66 914.353 1006.07 914.069 1005.48 913.778 1004.82 913.632 1004.08 913.632 1003.3 913.632 1002.61 913.792 1002.03 914.112 1001.45 914.431 1001 914.882 1000.69 915.464 1000.38 916.047 1000.22 916.729 1000.22 917.51H997.077C997.077 916.182 997.383 915.021 997.994 914.026 998.604 913.032 999.442 912.261 1000.51 911.714 1001.57 911.161 1002.78 910.884 1004.14 910.884 1005.51 910.884 1006.72 911.157 1007.76 911.704 1008.81 912.244 1009.63 912.982 1010.22 913.92 1010.81 914.85 1011.11 915.901 1011.11 917.073 1011.11 917.883 1010.96 918.675 1010.65 919.449 1010.35 920.223 1009.83 921.086 1009.08 922.038 1008.34 922.982 1007.3 924.129 1005.97 925.479L1001.64 930.017V930.177H1011.46V933H997.099ZM1022.91 933.362C1021.23 933.355 1019.79 932.911 1018.6 932.031 1017.41 931.15 1016.49 929.868 1015.86 928.185 1015.23 926.501 1014.91 924.474 1014.91 922.102 1014.91 919.737 1015.23 917.716 1015.86 916.04 1016.5 914.364 1017.42 913.085 1018.61 912.205 1019.81 911.324 1021.24 910.884 1022.91 910.884 1024.58 910.884 1026.01 911.327 1027.21 912.215 1028.4 913.096 1029.31 914.374 1029.94 916.05 1030.58 917.719 1030.9 919.737 1030.9 922.102 1030.9 924.481 1030.59 926.512 1029.95 928.195 1029.32 929.871 1028.41 931.153 1027.22 932.041 1026.02 932.922 1024.59 933.362 1022.91 933.362ZM1022.91 930.518C1024.39 930.518 1025.54 929.797 1026.38 928.355 1027.21 926.913 1027.63 924.829 1027.63 922.102 1027.63 920.29 1027.44 918.76 1027.06 917.51 1026.68 916.253 1026.14 915.301 1025.43 914.655 1024.72 914.001 1023.89 913.675 1022.91 913.675 1021.44 913.675 1020.29 914.399 1019.45 915.848 1018.61 917.297 1018.19 919.381 1018.18 922.102 1018.18 923.92 1018.37 925.457 1018.75 926.714 1019.13 927.964 1019.67 928.913 1020.38 929.559 1021.08 930.198 1021.93 930.518 1022.91 930.518ZM1034.5 933V930.614L1041.89 922.964C1042.67 922.134 1043.32 921.406 1043.83 920.781 1044.35 920.148 1044.74 919.548 1045 918.98 1045.25 918.412 1045.38 917.808 1045.38 917.169 1045.38 916.445 1045.21 915.82 1044.87 915.294 1044.53 914.761 1044.06 914.353 1043.47 914.069 1042.88 913.778 1042.22 913.632 1041.48 913.632 1040.7 913.632 1040.02 913.792 1039.43 914.112 1038.85 914.431 1038.41 914.882 1038.09 915.464 1037.78 916.047 1037.62 916.729 1037.62 917.51H1034.48C1034.48 916.182 1034.79 915.021 1035.4 914.026 1036.01 913.032 1036.85 912.261 1037.91 911.714 1038.98 911.161 1040.19 910.884 1041.54 910.884 1042.92 910.884 1044.12 911.157 1045.17 911.704 1046.22 912.244 1047.04 912.982 1047.63 913.92 1048.22 914.85 1048.51 915.901 1048.51 917.073 1048.51 917.883 1048.36 918.675 1048.05 919.449 1047.76 920.223 1047.23 921.086 1046.49 922.038 1045.74 922.982 1044.7 924.129 1043.38 925.479L1039.04 930.017V930.177H1048.86V933H1034.5ZM1060.32 933.298C1058.85 933.298 1057.55 933.046 1056.4 932.542 1055.25 932.038 1054.35 931.338 1053.68 930.443 1053.02 929.541 1052.66 928.497 1052.61 927.311H1055.96C1056 927.957 1056.22 928.518 1056.61 928.994 1057.01 929.463 1057.53 929.825 1058.16 930.081 1058.8 930.337 1059.51 930.464 1060.3 930.464 1061.15 930.464 1061.91 930.315 1062.58 930.017 1063.24 929.719 1063.76 929.303 1064.14 928.771 1064.52 928.231 1064.71 927.609 1064.71 926.906 1064.71 926.175 1064.52 925.532 1064.14 924.978 1063.77 924.417 1063.23 923.977 1062.51 923.657 1061.8 923.337 1060.94 923.178 1059.93 923.178H1058.09V920.493H1059.93C1060.74 920.493 1061.45 920.347 1062.06 920.056 1062.68 919.765 1063.16 919.36 1063.51 918.842 1063.86 918.316 1064.03 917.702 1064.03 916.999 1064.03 916.324 1063.88 915.738 1063.58 915.241 1063.28 914.737 1062.85 914.342 1062.3 914.058 1061.75 913.774 1061.11 913.632 1060.36 913.632 1059.65 913.632 1058.99 913.763 1058.37 914.026 1057.76 914.282 1057.26 914.651 1056.88 915.134 1056.49 915.61 1056.29 916.182 1056.26 916.849H1053.07C1053.11 915.67 1053.46 914.634 1054.12 913.739 1054.78 912.844 1055.66 912.144 1056.76 911.64 1057.85 911.136 1059.07 910.884 1060.4 910.884 1061.8 910.884 1063.01 911.157 1064.02 911.704 1065.05 912.244 1065.84 912.964 1066.39 913.866 1066.95 914.768 1067.23 915.756 1067.22 916.828 1067.23 918.05 1066.89 919.087 1066.2 919.939 1065.52 920.791 1064.61 921.363 1063.47 921.654V921.825C1064.92 922.045 1066.04 922.62 1066.84 923.55 1067.64 924.481 1068.04 925.635 1068.03 927.013 1068.04 928.213 1067.7 929.289 1067.03 930.241 1066.36 931.192 1065.45 931.942 1064.29 932.489 1063.13 933.028 1061.81 933.298 1060.32 933.298Z" fill="#000000"/><rect fill="#ffffff" height="630" rx="42" width="84" x="166" y="252"/><rect fill="#ffffff" height="630" rx="42" width="84" x="422" y="252"/><rect fill="#ffffff" height="630" rx="42" width="84" x="678" y="253"/><rect fill="#ffffff" height="630" rx="42" width="84" x="934" y="254"/><rect fill="#ffffff" height="628" rx="42" width="88" x="268" y="251"/><rect fill="#ffffff" height="628" rx="42" width="88" x="524" y="251"/><rect fill="#ffffff" height="628" rx="42" width="88" x="780" y="252"/><rect fill="#ffffff" height="628" rx="42" width="88" x="1036" y="253"/><rect fill="#3e5fff" height="422" rx="41" width="84" x="422" y="464"/><rect fill="#3e5fff" height="465" rx="42" width="84" x="677" y="423"/><rect fill="#95d1f9" height="201" rx="44" width="88" x="268" y="680"/><rect fill="#95d1f9" height="163" rx="44" width="88" x="524" y="723"/><rect fill="#95d1f9" height="192" rx="44" width="88" x="780" y="696"/><rect fill="#3e5fff" height="440" rx="42" width="84" x="166" y="443"/><circle cx="427.5" cy="1015.5" fill="#3e5fff" r="15.5"/><path d="M665 1015.5C665 1024.06 658.06 1031 649.5 1031 640.94 1031 634 1024.06 634 1015.5 634 1006.94 640.94 1000 649.5 1000 658.06 1000 665 1006.94 665 1015.5Z" fill="#95d1f9"/><g fill="#000000"><path d="M764.631 1136.07C764.631 1134.93 765.098 1133.8 765.898 1133 766.698 1132.2 767.832 1131.73 768.965 1131.73 770.099 1131.73 771.233 1132.2 772.033 1133 772.833 1133.8 773.3 1134.93 773.3 1136.07 773.3 1136.67 773.167 1137.2 772.967 1137.74 772.766 1138.27 772.433 1138.74 772.033 1139.14 771.633 1139.54 771.166 1139.87 770.632 1140.07 770.099 1140.27 769.566 1140.4 768.965 1140.4 768.365 1140.4 767.832 1140.27 767.298 1140.07 766.765 1139.87 766.298 1139.54 765.898 1139.14 765.498 1138.74 765.164 1138.27 764.964 1137.74 764.697 1137.2 764.631 1136.6 764.631 1136.07ZM765.431 1136.07C765.431 1136.53 765.498 1137 765.698 1137.4 765.898 1137.8 766.098 1138.2 766.431 1138.54 766.765 1138.87 767.165 1139.14 767.565 1139.34 767.965 1139.54 768.432 1139.6 768.899 1139.6 769.832 1139.6 770.766 1139.2 771.366 1138.54 772.033 1137.87 772.366 1137 772.366 1136 772.366 1135.07 771.966 1134.13 771.366 1133.47 770.699 1132.8 769.832 1132.4 768.899 1132.4 768.432 1132.4 767.965 1132.47 767.565 1132.67 767.165 1132.87 766.765 1133.13 766.431 1133.47 766.098 1133.8 765.831 1134.2 765.698 1134.6 765.498 1135.13 765.431 1135.6 765.431 1136.07ZM768.298 1138.54H767.298V1133.6H769.232C770.232 1133.6 771.033 1134.13 771.033 1135.13 771.033 1135.47 770.966 1135.73 770.766 1136 770.566 1136.27 770.366 1136.47 770.032 1136.53L771.033 1138.54H769.899L768.965 1136.73H768.232V1138.54H768.298ZM769.165 1134.53H768.298V1135.73H769.165C769.566 1135.73 769.966 1135.6 769.966 1135.13 769.966 1134.67 769.566 1134.53 769.165 1134.53Z"/><path clip-rule="evenodd" d="M561.304 1170.29 543.566 1143.67V1170.29H535.697V1131.73H544.833L561.571 1156.95V1131.73H569.44V1170.29H561.304Z" fill-rule="evenodd"/><path clip-rule="evenodd" d="M587.512 1143.41C579.509 1143.41 573.107 1149.34 573.107 1157.21 573.107 1165.15 579.443 1170.89 587.445 1170.89 595.447 1170.89 601.849 1164.95 601.849 1157.01 601.782 1149.21 595.381 1143.41 587.512 1143.41ZM587.445 1163.82C583.844 1163.82 580.91 1161.08 580.91 1157.08 580.91 1153.08 583.777 1150.41 587.378 1150.41 590.979 1150.41 593.914 1153.14 593.914 1157.08 593.914 1161.01 591.046 1163.82 587.445 1163.82Z" fill-rule="evenodd"/><path clip-rule="evenodd" d="M621.654 1143.94V1151.48C620.853 1151.34 619.986 1151.28 619.186 1151.28 615.519 1151.28 612.918 1153.81 612.918 1158.75V1170.29H605.382V1144.01H612.651V1147.87H612.718C614.118 1144.87 616.786 1143.74 619.52 1143.74 620.32 1143.67 620.987 1143.81 621.654 1143.94Z" fill-rule="evenodd"/><path clip-rule="evenodd" d="M643.662 1131.67V1146.94H643.595C640.861 1143.74 637.26 1143.47 635.726 1143.47 628.19 1143.47 623.122 1150.41 623.122 1157.08 623.122 1164.15 627.99 1170.75 635.659 1170.75 637.46 1170.75 641.394 1170.49 643.862 1166.88H643.928V1170.22H651.397V1131.67H643.662ZM637.393 1163.82C633.792 1163.82 630.858 1161.08 630.858 1157.08 630.858 1153.08 633.792 1150.41 637.393 1150.41 640.994 1150.41 643.928 1153.14 643.928 1157.08 643.862 1161.01 640.928 1163.82 637.393 1163.82Z" fill-rule="evenodd"/><path clip-rule="evenodd" d="M667.667 1170.29 653.73 1131.73H662.333L672.335 1161.08 682.405 1131.73H690.874L676.87 1170.29H667.667Z" fill-rule="evenodd"/><path clip-rule="evenodd" d="M708.481 1131.67H694.143V1170.29H702.146V1156.68H708.214C716.283 1156.68 722.285 1152.61 722.285 1144.07 722.218 1135.87 716.216 1131.67 708.481 1131.67ZM707.814 1149.21H702.079V1139.2H707.747C711.082 1139.2 714.216 1140.47 714.216 1144.21 714.216 1147.87 710.948 1149.21 707.814 1149.21Z" fill-rule="evenodd"/><path clip-rule="evenodd" d="M751.893 1170.29 734.155 1143.67V1170.29H726.286V1131.73H735.422L752.16 1156.95V1131.73H760.029V1170.29H751.893Z" fill-rule="evenodd"/></g><path clip-rule="evenodd" d="M416.461 1188.63C410.259 1180.09 406.925 1169.75 406.925 1159.21 406.925 1131.53 429.332 1109.12 456.94 1109.12 484.548 1109.12 506.954 1131.53 506.954 1159.21 506.954 1169.75 503.62 1180.09 497.418 1188.63L473.411 1149.54 471.077 1153.48 473.411 1164.42 456.94 1136.14 446.737 1153.41 449.137 1164.42 440.468 1149.61 416.461 1188.63Z" fill="#3e5fff" fill-rule="evenodd"/><rect fill="#3e5fff" height="517" rx="42" width="84" x="934" y="369"/><rect fill="#95d1f9" height="259" rx="44" width="88" x="1036" y="627"/><path d="M99.2472 283.298C97.7841 283.298 96.4915 283.039 95.3693 282.521 94.2543 281.995 93.3842 281.274 92.7592 280.358 92.1342 279.435 91.8253 278.384 91.8324 277.205 91.8253 276.281 92.0064 275.429 92.3757 274.648 92.745 273.859 93.2493 273.202 93.8885 272.677 94.5348 272.144 95.2557 271.807 96.0511 271.665V271.537C95.0071 271.267 94.1761 270.681 93.5582 269.779 92.9403 268.87 92.6349 267.837 92.642 266.679 92.6349 265.571 92.9155 264.58 93.4837 263.707 94.0518 262.833 94.8331 262.144 95.8274 261.64 96.8288 261.136 97.9688 260.884 99.2472 260.884 100.511 260.884 101.641 261.136 102.635 261.64 103.629 262.144 104.411 262.833 104.979 263.707 105.554 264.58 105.845 265.571 105.852 266.679 105.845 267.837 105.529 268.87 104.904 269.779 104.286 270.681 103.466 271.267 102.443 271.537V271.665C103.232 271.807 103.942 272.144 104.574 272.677 105.206 273.202 105.71 273.859 106.087 274.648 106.463 275.429 106.655 276.281 106.662 277.205 106.655 278.384 106.335 279.435 105.703 280.358 105.078 281.274 104.208 281.995 103.093 282.521 101.985 283.039 100.703 283.298 99.2472 283.298ZM99.2472 280.955C100.234 280.955 101.087 280.795 101.804 280.475 102.521 280.156 103.075 279.705 103.466 279.122 103.857 278.54 104.055 277.858 104.062 277.077 104.055 276.253 103.842 275.525 103.423 274.893 103.004 274.261 102.433 273.763 101.708 273.401 100.991 273.039 100.17 272.858 99.2472 272.858 98.3168 272.858 97.4858 273.039 96.7543 273.401 96.0298 273.763 95.4581 274.261 95.0391 274.893 94.6271 275.525 94.4247 276.253 94.4318 277.077 94.4247 277.858 94.6129 278.54 94.9964 279.122 95.3871 279.705 95.9446 280.156 96.669 280.475 97.3935 280.795 98.2528 280.955 99.2472 280.955ZM99.2472 270.599C100.028 270.599 100.721 270.443 101.325 270.131 101.935 269.818 102.415 269.381 102.763 268.82 103.111 268.259 103.288 267.602 103.295 266.849 103.288 266.111 103.114 265.468 102.773 264.921 102.433 264.367 101.96 263.941 101.357 263.643 100.753 263.337 100.05 263.185 99.2472 263.185 98.4304 263.185 97.7166 263.337 97.1058 263.643 96.495 263.941 96.0227 264.367 95.6889 264.921 95.3551 265.468 95.1918 266.111 95.1989 266.849 95.1918 267.602 95.3587 268.259 95.6996 268.82 96.0476 269.381 96.527 269.818 97.1378 270.131 97.7486 270.443 98.4517 270.599 99.2472 270.599ZM117.681 283.298C116.076 283.298 114.709 282.862 113.58 281.988 112.451 281.107 111.588 279.832 110.991 278.163 110.394 276.487 110.096 274.463 110.096 272.091 110.096 269.733 110.394 267.719 110.991 266.05 111.595 264.374 112.461 263.096 113.59 262.215 114.727 261.327 116.09 260.884 117.681 260.884 119.272 260.884 120.632 261.327 121.762 262.215 122.898 263.096 123.764 264.374 124.361 266.05 124.965 267.719 125.267 269.733 125.267 272.091 125.267 274.463 124.968 276.487 124.372 278.163 123.775 279.832 122.912 281.107 121.783 281.988 120.654 282.862 119.286 283.298 117.681 283.298ZM117.681 280.955C119.272 280.955 120.508 280.187 121.389 278.653 122.269 277.119 122.71 274.932 122.71 272.091 122.71 270.202 122.507 268.593 122.102 267.265 121.705 265.937 121.129 264.925 120.377 264.229 119.631 263.533 118.732 263.185 117.681 263.185 116.105 263.185 114.872 263.962 113.985 265.518 113.097 267.066 112.653 269.257 112.653 272.091 112.653 273.98 112.852 275.585 113.25 276.906 113.647 278.227 114.219 279.232 114.965 279.921 115.718 280.61 116.623 280.955 117.681 280.955ZM140.257 278.909V277.759C140.257 276.963 140.42 276.235 140.747 275.575 141.081 274.907 141.564 274.374 142.196 273.977 142.835 273.572 143.609 273.369 144.518 273.369 145.442 273.369 146.216 273.572 146.841 273.977 147.466 274.374 147.938 274.907 148.258 275.575 148.577 276.235 148.737 276.963 148.737 277.759V278.909C148.737 279.705 148.574 280.436 148.247 281.104 147.927 281.764 147.452 282.297 146.82 282.702 146.195 283.099 145.427 283.298 144.518 283.298 143.595 283.298 142.817 283.099 142.185 282.702 141.553 282.297 141.074 281.764 140.747 281.104 140.42 280.436 140.257 279.705 140.257 278.909ZM142.43 277.759V278.909C142.43 279.57 142.587 280.163 142.899 280.688 143.212 281.207 143.751 281.466 144.518 281.466 145.264 281.466 145.79 281.207 146.095 280.688 146.408 280.163 146.564 279.57 146.564 278.909V277.759C146.564 277.098 146.415 276.509 146.116 275.99 145.818 275.464 145.285 275.202 144.518 275.202 143.773 275.202 143.236 275.464 142.91 275.99 142.59 276.509 142.43 277.098 142.43 277.759ZM129.391 266.423V265.273C129.391 264.477 129.554 263.749 129.881 263.089 130.214 262.421 130.697 261.888 131.329 261.491 131.969 261.086 132.743 260.884 133.652 260.884 134.575 260.884 135.349 261.086 135.974 261.491 136.599 261.888 137.072 262.421 137.391 263.089 137.711 263.749 137.871 264.477 137.871 265.273V266.423C137.871 267.219 137.707 267.95 137.381 268.618 137.061 269.278 136.585 269.811 135.953 270.216 135.328 270.614 134.561 270.812 133.652 270.812 132.729 270.812 131.951 270.614 131.319 270.216 130.687 269.811 130.207 269.278 129.881 268.618 129.554 267.95 129.391 267.219 129.391 266.423ZM131.564 265.273V266.423C131.564 267.084 131.72 267.677 132.033 268.202 132.345 268.721 132.885 268.98 133.652 268.98 134.398 268.98 134.923 268.721 135.229 268.202 135.541 267.677 135.697 267.084 135.697 266.423V265.273C135.697 264.612 135.548 264.023 135.25 263.504 134.952 262.979 134.419 262.716 133.652 262.716 132.906 262.716 132.37 262.979 132.043 263.504 131.724 264.023 131.564 264.612 131.564 265.273ZM130.2 283 145.2 261.182H147.629L132.629 283H130.2Z" fill="#000000"/><path d="M99.5028 433.298C98.608 433.284 97.7131 433.114 96.8182 432.787 95.9233 432.46 95.1065 431.91 94.3679 431.136 93.6293 430.354 93.0362 429.3 92.5888 427.972 92.1413 426.636 91.9176 424.96 91.9176 422.943 91.9176 421.011 92.0987 419.3 92.4609 417.808 92.8232 416.31 93.3487 415.049 94.0376 414.026 94.7266 412.996 95.5575 412.215 96.5305 411.683 97.5107 411.15 98.6151 410.884 99.8438 410.884 101.065 410.884 102.152 411.129 103.104 411.619 104.063 412.102 104.844 412.776 105.447 413.643 106.051 414.509 106.442 415.507 106.619 416.636H104.02C103.778 415.656 103.31 414.843 102.614 414.197 101.918 413.55 100.994 413.227 99.8438 413.227 98.1534 413.227 96.8217 413.962 95.8487 415.433 94.8828 416.903 94.3963 418.966 94.3892 421.622H94.5597C94.9574 421.018 95.4297 420.504 95.9766 420.077 96.5305 419.644 97.1413 419.31 97.8089 419.076 98.4766 418.842 99.1832 418.724 99.929 418.724 101.179 418.724 102.322 419.037 103.359 419.662 104.396 420.28 105.227 421.136 105.852 422.229 106.477 423.316 106.79 424.562 106.79 425.969 106.79 427.318 106.488 428.554 105.884 429.676 105.281 430.791 104.432 431.679 103.338 432.339 102.251 432.993 100.973 433.312 99.5028 433.298ZM99.5028 430.955C100.398 430.955 101.2 430.731 101.911 430.283 102.628 429.836 103.192 429.236 103.604 428.483 104.023 427.73 104.233 426.892 104.233 425.969 104.233 425.067 104.031 424.246 103.626 423.508 103.228 422.762 102.678 422.169 101.974 421.729 101.278 421.288 100.483 421.068 99.5881 421.068 98.9134 421.068 98.2848 421.203 97.7024 421.473 97.12 421.736 96.6087 422.098 96.1683 422.56 95.7351 423.021 95.3942 423.55 95.1456 424.147 94.897 424.737 94.7727 425.358 94.7727 426.011 94.7727 426.878 94.9751 427.687 95.38 428.44 95.7919 429.193 96.353 429.8 97.0632 430.262 97.7805 430.724 98.5938 430.955 99.5028 430.955ZM117.916 433.298C116.311 433.298 114.943 432.862 113.814 431.988 112.685 431.107 111.822 429.832 111.225 428.163 110.629 426.487 110.33 424.463 110.33 422.091 110.33 419.733 110.629 417.719 111.225 416.05 111.829 414.374 112.696 413.096 113.825 412.215 114.961 411.327 116.325 410.884 117.916 410.884 119.507 410.884 120.867 411.327 121.996 412.215 123.132 413.096 123.999 414.374 124.595 416.05 125.199 417.719 125.501 419.733 125.501 422.091 125.501 424.463 125.203 426.487 124.606 428.163 124.009 429.832 123.147 431.107 122.017 431.988 120.888 432.862 119.521 433.298 117.916 433.298ZM117.916 430.955C119.507 430.955 120.742 430.187 121.623 428.653 122.504 427.119 122.944 424.932 122.944 422.091 122.944 420.202 122.742 418.593 122.337 417.265 121.939 415.937 121.364 414.925 120.611 414.229 119.865 413.533 118.967 413.185 117.916 413.185 116.339 413.185 115.107 413.962 114.219 415.518 113.331 417.066 112.887 419.257 112.887 422.091 112.887 423.98 113.086 425.585 113.484 426.906 113.882 428.227 114.453 429.232 115.199 429.921 115.952 430.61 116.857 430.955 117.916 430.955ZM140.491 428.909V427.759C140.491 426.963 140.655 426.235 140.981 425.575 141.315 424.907 141.798 424.374 142.43 423.977 143.07 423.572 143.844 423.369 144.753 423.369 145.676 423.369 146.45 423.572 147.075 423.977 147.7 424.374 148.172 424.907 148.492 425.575 148.812 426.235 148.971 426.963 148.971 427.759V428.909C148.971 429.705 148.808 430.436 148.481 431.104 148.162 431.764 147.686 432.297 147.054 432.702 146.429 433.099 145.662 433.298 144.753 433.298 143.829 433.298 143.052 433.099 142.42 432.702 141.788 432.297 141.308 431.764 140.981 431.104 140.655 430.436 140.491 429.705 140.491 428.909ZM142.665 427.759V428.909C142.665 429.57 142.821 430.163 143.133 430.688 143.446 431.207 143.986 431.466 144.753 431.466 145.498 431.466 146.024 431.207 146.329 430.688 146.642 430.163 146.798 429.57 146.798 428.909V427.759C146.798 427.098 146.649 426.509 146.351 425.99 146.052 425.464 145.52 425.202 144.753 425.202 144.007 425.202 143.471 425.464 143.144 425.99 142.824 426.509 142.665 427.098 142.665 427.759ZM129.625 416.423V415.273C129.625 414.477 129.788 413.749 130.115 413.089 130.449 412.421 130.932 411.888 131.564 411.491 132.203 411.086 132.977 410.884 133.886 410.884 134.81 410.884 135.584 411.086 136.209 411.491 136.834 411.888 137.306 412.421 137.626 413.089 137.945 413.749 138.105 414.477 138.105 415.273V416.423C138.105 417.219 137.942 417.95 137.615 418.618 137.295 419.278 136.82 419.811 136.187 420.216 135.562 420.614 134.795 420.812 133.886 420.812 132.963 420.812 132.185 420.614 131.553 420.216 130.921 419.811 130.442 419.278 130.115 418.618 129.788 417.95 129.625 417.219 129.625 416.423ZM131.798 415.273V416.423C131.798 417.084 131.954 417.677 132.267 418.202 132.579 418.721 133.119 418.98 133.886 418.98 134.632 418.98 135.158 418.721 135.463 418.202 135.775 417.677 135.932 417.084 135.932 416.423V415.273C135.932 414.612 135.783 414.023 135.484 413.504 135.186 412.979 134.653 412.716 133.886 412.716 133.141 412.716 132.604 412.979 132.278 413.504 131.958 414.023 131.798 414.612 131.798 415.273ZM130.435 433 145.435 411.182H147.864L132.864 433H130.435Z" fill="#000000"/><path d="M91.7472 581.526V579.352L101.335 564.182H102.912V567.548H101.847L94.6023 579.011V579.182H107.514V581.526H91.7472ZM102.017 586V580.865 579.853 564.182H104.531V586H102.017ZM118.443 586.298C116.838 586.298 115.471 585.862 114.341 584.988 113.212 584.107 112.349 582.832 111.753 581.163 111.156 579.487 110.858 577.463 110.858 575.091 110.858 572.733 111.156 570.719 111.753 569.05 112.356 567.374 113.223 566.096 114.352 565.215 115.489 564.327 116.852 563.884 118.443 563.884 120.034 563.884 121.394 564.327 122.523 565.215 123.66 566.096 124.526 567.374 125.123 569.05 125.726 570.719 126.028 572.733 126.028 575.091 126.028 577.463 125.73 579.487 125.133 581.163 124.537 582.832 123.674 584.107 122.545 584.988 121.415 585.862 120.048 586.298 118.443 586.298ZM118.443 583.955C120.034 583.955 121.27 583.187 122.15 581.653 123.031 580.119 123.471 577.932 123.471 575.091 123.471 573.202 123.269 571.593 122.864 570.265 122.466 568.937 121.891 567.925 121.138 567.229 120.393 566.533 119.494 566.185 118.443 566.185 116.866 566.185 115.634 566.962 114.746 568.518 113.859 570.066 113.415 572.257 113.415 575.091 113.415 576.98 113.614 578.585 114.011 579.906 114.409 581.227 114.981 582.232 115.726 582.921 116.479 583.61 117.385 583.955 118.443 583.955ZM141.019 581.909V580.759C141.019 579.963 141.182 579.235 141.509 578.575 141.843 577.907 142.326 577.374 142.958 576.977 143.597 576.572 144.371 576.369 145.28 576.369 146.203 576.369 146.978 576.572 147.603 576.977 148.228 577.374 148.7 577.907 149.019 578.575 149.339 579.235 149.499 579.963 149.499 580.759V581.909C149.499 582.705 149.335 583.436 149.009 584.104 148.689 584.764 148.213 585.297 147.581 585.702 146.956 586.099 146.189 586.298 145.28 586.298 144.357 586.298 143.579 586.099 142.947 585.702 142.315 585.297 141.835 584.764 141.509 584.104 141.182 583.436 141.019 582.705 141.019 581.909ZM143.192 580.759V581.909C143.192 582.57 143.348 583.163 143.661 583.688 143.973 584.207 144.513 584.466 145.28 584.466 146.026 584.466 146.551 584.207 146.857 583.688 147.169 583.163 147.326 582.57 147.326 581.909V580.759C147.326 580.098 147.176 579.509 146.878 578.99 146.58 578.464 146.047 578.202 145.28 578.202 144.534 578.202 143.998 578.464 143.671 578.99 143.352 579.509 143.192 580.098 143.192 580.759ZM130.152 569.423V568.273C130.152 567.477 130.316 566.749 130.642 566.089 130.976 565.421 131.459 564.888 132.091 564.491 132.73 564.086 133.505 563.884 134.414 563.884 135.337 563.884 136.111 564.086 136.736 564.491 137.361 564.888 137.833 565.421 138.153 566.089 138.473 566.749 138.632 567.477 138.632 568.273V569.423C138.632 570.219 138.469 570.95 138.142 571.618 137.823 572.278 137.347 572.811 136.715 573.216 136.09 573.614 135.323 573.812 134.414 573.812 133.49 573.812 132.713 573.614 132.081 573.216 131.448 572.811 130.969 572.278 130.642 571.618 130.316 570.95 130.152 570.219 130.152 569.423ZM132.326 568.273V569.423C132.326 570.084 132.482 570.677 132.794 571.202 133.107 571.721 133.647 571.98 134.414 571.98 135.159 571.98 135.685 571.721 135.99 571.202 136.303 570.677 136.459 570.084 136.459 569.423V568.273C136.459 567.612 136.31 567.023 136.012 566.504 135.713 565.979 135.181 565.716 134.414 565.716 133.668 565.716 133.132 565.979 132.805 566.504 132.485 567.023 132.326 567.612 132.326 568.273ZM130.962 586 145.962 564.182H148.391L133.391 586H130.962Z" fill="#000000"/><path d="M92.2585 738V736.082L99.4602 728.199C100.305 727.276 101.001 726.473 101.548 725.791 102.095 725.102 102.5 724.456 102.763 723.852 103.033 723.241 103.168 722.602 103.168 721.935 103.168 721.168 102.983 720.504 102.614 719.942 102.251 719.381 101.754 718.948 101.122 718.643 100.49 718.337 99.7798 718.185 98.9915 718.185 98.1534 718.185 97.4219 718.359 96.7969 718.707 96.179 719.048 95.6996 719.527 95.3587 720.145 95.0249 720.763 94.858 721.487 94.858 722.318H92.3438C92.3438 721.04 92.6385 719.918 93.228 718.952 93.8175 717.986 94.62 717.233 95.6357 716.693 96.6584 716.153 97.8054 715.884 99.0767 715.884 100.355 715.884 101.488 716.153 102.475 716.693 103.462 717.233 104.237 717.961 104.798 718.877 105.359 719.793 105.639 720.812 105.639 721.935 105.639 722.737 105.494 723.522 105.202 724.289 104.918 725.049 104.421 725.898 103.711 726.835 103.008 727.766 102.031 728.902 100.781 730.244L95.8807 735.486V735.656H106.023V738H92.2585ZM117.359 738.298C115.754 738.298 114.387 737.862 113.257 736.988 112.128 736.107 111.265 734.832 110.669 733.163 110.072 731.487 109.774 729.463 109.774 727.091 109.774 724.733 110.072 722.719 110.669 721.05 111.272 719.374 112.139 718.096 113.268 717.215 114.405 716.327 115.768 715.884 117.359 715.884 118.95 715.884 120.31 716.327 121.439 717.215 122.576 718.096 123.442 719.374 124.039 721.05 124.642 722.719 124.944 724.733 124.944 727.091 124.944 729.463 124.646 731.487 124.049 733.163 123.453 734.832 122.59 736.107 121.461 736.988 120.331 737.862 118.964 738.298 117.359 738.298ZM117.359 735.955C118.95 735.955 120.186 735.187 121.066 733.653 121.947 732.119 122.387 729.932 122.387 727.091 122.387 725.202 122.185 723.593 121.78 722.265 121.383 720.937 120.807 719.925 120.054 719.229 119.309 718.533 118.41 718.185 117.359 718.185 115.782 718.185 114.55 718.962 113.662 720.518 112.775 722.066 112.331 724.257 112.331 727.091 112.331 728.98 112.53 730.585 112.927 731.906 113.325 733.227 113.897 734.232 114.642 734.921 115.395 735.61 116.301 735.955 117.359 735.955ZM139.935 733.909V732.759C139.935 731.963 140.098 731.235 140.425 730.575 140.759 729.907 141.242 729.374 141.874 728.977 142.513 728.572 143.287 728.369 144.196 728.369 145.119 728.369 145.894 728.572 146.519 728.977 147.144 729.374 147.616 729.907 147.935 730.575 148.255 731.235 148.415 731.963 148.415 732.759V733.909C148.415 734.705 148.252 735.436 147.925 736.104 147.605 736.764 147.129 737.297 146.497 737.702 145.872 738.099 145.105 738.298 144.196 738.298 143.273 738.298 142.495 738.099 141.863 737.702 141.231 737.297 140.752 736.764 140.425 736.104 140.098 735.436 139.935 734.705 139.935 733.909ZM142.108 732.759V733.909C142.108 734.57 142.264 735.163 142.577 735.688 142.889 736.207 143.429 736.466 144.196 736.466 144.942 736.466 145.467 736.207 145.773 735.688 146.085 735.163 146.242 734.57 146.242 733.909V732.759C146.242 732.098 146.092 731.509 145.794 730.99 145.496 730.464 144.963 730.202 144.196 730.202 143.45 730.202 142.914 730.464 142.587 730.99 142.268 731.509 142.108 732.098 142.108 732.759ZM129.068 721.423V720.273C129.068 719.477 129.232 718.749 129.558 718.089 129.892 717.421 130.375 716.888 131.007 716.491 131.646 716.086 132.421 715.884 133.33 715.884 134.253 715.884 135.027 716.086 135.652 716.491 136.277 716.888 136.749 717.421 137.069 718.089 137.389 718.749 137.548 719.477 137.548 720.273V721.423C137.548 722.219 137.385 722.95 137.058 723.618 136.739 724.278 136.263 724.811 135.631 725.216 135.006 725.614 134.239 725.812 133.33 725.812 132.406 725.812 131.629 725.614 130.997 725.216 130.364 724.811 129.885 724.278 129.558 723.618 129.232 722.95 129.068 722.219 129.068 721.423ZM131.242 720.273V721.423C131.242 722.084 131.398 722.677 131.71 723.202 132.023 723.721 132.563 723.98 133.33 723.98 134.075 723.98 134.601 723.721 134.906 723.202 135.219 722.677 135.375 722.084 135.375 721.423V720.273C135.375 719.612 135.226 719.023 134.928 718.504 134.629 717.979 134.097 717.716 133.33 717.716 132.584 717.716 132.048 717.979 131.721 718.504 131.401 719.023 131.242 719.612 131.242 720.273ZM129.878 738 144.878 716.182H147.307L132.307 738H129.878Z" fill="#000000"/><path d="M108.375 879.298C106.77 879.298 105.403 878.862 104.273 877.988 103.144 877.107 102.281 875.832 101.685 874.163 101.088 872.487 100.79 870.463 100.79 868.091 100.79 865.733 101.088 863.719 101.685 862.05 102.288 860.374 103.155 859.096 104.284 858.215 105.42 857.327 106.784 856.884 108.375 856.884 109.966 856.884 111.326 857.327 112.455 858.215 113.592 859.096 114.458 860.374 115.055 862.05 115.658 863.719 115.96 865.733 115.96 868.091 115.96 870.463 115.662 872.487 115.065 874.163 114.469 875.832 113.606 877.107 112.477 877.988 111.347 878.862 109.98 879.298 108.375 879.298ZM108.375 876.955C109.966 876.955 111.202 876.187 112.082 874.653 112.963 873.119 113.403 870.932 113.403 868.091 113.403 866.202 113.201 864.593 112.796 863.265 112.398 861.937 111.823 860.925 111.07 860.229 110.325 859.533 109.426 859.185 108.375 859.185 106.798 859.185 105.566 859.962 104.678 861.518 103.79 863.066 103.347 865.257 103.347 868.091 103.347 869.98 103.545 871.585 103.943 872.906 104.341 874.227 104.913 875.232 105.658 875.921 106.411 876.61 107.317 876.955 108.375 876.955ZM130.951 874.909V873.759C130.951 872.963 131.114 872.235 131.441 871.575 131.775 870.907 132.258 870.374 132.89 869.977 133.529 869.572 134.303 869.369 135.212 869.369 136.135 869.369 136.909 869.572 137.534 869.977 138.159 870.374 138.632 870.907 138.951 871.575 139.271 872.235 139.431 872.963 139.431 873.759V874.909C139.431 875.705 139.267 876.436 138.941 877.104 138.621 877.764 138.145 878.297 137.513 878.702 136.888 879.099 136.121 879.298 135.212 879.298 134.289 879.298 133.511 879.099 132.879 878.702 132.247 878.297 131.767 877.764 131.441 877.104 131.114 876.436 130.951 875.705 130.951 874.909ZM133.124 873.759V874.909C133.124 875.57 133.28 876.163 133.593 876.688 133.905 877.207 134.445 877.466 135.212 877.466 135.958 877.466 136.483 877.207 136.789 876.688 137.101 876.163 137.257 875.57 137.257 874.909V873.759C137.257 873.098 137.108 872.509 136.81 871.99 136.512 871.464 135.979 871.202 135.212 871.202 134.466 871.202 133.93 871.464 133.603 871.99 133.284 872.509 133.124 873.098 133.124 873.759ZM120.084 862.423V861.273C120.084 860.477 120.248 859.749 120.574 859.089 120.908 858.421 121.391 857.888 122.023 857.491 122.662 857.086 123.436 856.884 124.346 856.884 125.269 856.884 126.043 857.086 126.668 857.491 127.293 857.888 127.765 858.421 128.085 859.089 128.405 859.749 128.564 860.477 128.564 861.273V862.423C128.564 863.219 128.401 863.95 128.074 864.618 127.755 865.278 127.279 865.811 126.647 866.216 126.022 866.614 125.255 866.812 124.346 866.812 123.422 866.812 122.645 866.614 122.012 866.216 121.38 865.811 120.901 865.278 120.574 864.618 120.248 863.95 120.084 863.219 120.084 862.423ZM122.257 861.273V862.423C122.257 863.084 122.414 863.677 122.726 864.202 123.039 864.721 123.579 864.98 124.346 864.98 125.091 864.98 125.617 864.721 125.922 864.202 126.235 863.677 126.391 863.084 126.391 862.423V861.273C126.391 860.612 126.242 860.023 125.944 859.504 125.645 858.979 125.113 858.716 124.346 858.716 123.6 858.716 123.064 858.979 122.737 859.504 122.417 860.023 122.257 860.612 122.257 861.273ZM120.894 879 135.894 857.182H138.323L123.323 879H120.894Z" fill="#000000"/><path d="M454.642 1025V1003.18H457.284V1014.01H457.54L467.341 1003.18H470.793L461.631 1013.03 470.793 1025H467.597L460.011 1014.86 457.284 1017.93V1025H454.642ZM476.206 1015.16V1025H473.691V1008.64H476.12V1011.19H476.333C476.717 1010.36 477.299 1009.69 478.081 1009.19 478.862 1008.68 479.87 1008.42 481.106 1008.42 482.214 1008.42 483.184 1008.65 484.015 1009.11 484.846 1009.55 485.492 1010.23 485.954 1011.15 486.415 1012.06 486.646 1013.21 486.646 1014.6V1025H484.132V1014.77C484.132 1013.49 483.798 1012.49 483.13 1011.77 482.463 1011.04 481.547 1010.68 480.382 1010.68 479.579 1010.68 478.862 1010.86 478.23 1011.2 477.605 1011.55 477.111 1012.06 476.749 1012.73 476.387 1013.39 476.206 1014.2 476.206 1015.16ZM497.708 1025.34C496.231 1025.34 494.935 1024.99 493.82 1024.29 492.712 1023.58 491.845 1022.6 491.22 1021.34 490.602 1020.07 490.293 1018.59 490.293 1016.9 490.293 1015.2 490.602 1013.71 491.22 1012.44 491.845 1011.17 492.712 1010.18 493.82 1009.48 494.935 1008.77 496.231 1008.42 497.708 1008.42 499.185 1008.42 500.478 1008.77 501.586 1009.48 502.701 1010.18 503.567 1011.17 504.185 1012.44 504.81 1013.71 505.123 1015.2 505.123 1016.9 505.123 1018.59 504.81 1020.07 504.185 1021.34 503.567 1022.6 502.701 1023.58 501.586 1024.29 500.478 1024.99 499.185 1025.34 497.708 1025.34ZM497.708 1023.08C498.83 1023.08 499.753 1022.79 500.478 1022.22 501.202 1021.64 501.739 1020.89 502.087 1019.95 502.435 1019.01 502.609 1018 502.609 1016.9 502.609 1015.81 502.435 1014.79 502.087 1013.85 501.739 1012.9 501.202 1012.14 500.478 1011.56 499.753 1010.97 498.83 1010.68 497.708 1010.68 496.586 1010.68 495.663 1010.97 494.938 1011.56 494.214 1012.14 493.677 1012.9 493.329 1013.85 492.981 1014.79 492.807 1015.81 492.807 1016.9 492.807 1018 492.981 1019.01 493.329 1019.95 493.677 1020.89 494.214 1021.64 494.938 1022.22 495.663 1022.79 496.586 1023.08 497.708 1023.08ZM511.931 1025 506.946 1008.64H509.588L513.125 1021.16H513.295L516.789 1008.64H519.474L522.926 1021.12H523.096L526.633 1008.64H529.275L524.289 1025H521.818L518.238 1012.43H517.983L514.403 1025H511.931ZM541.912 1003.18 548.39 1021.55H548.645L555.123 1003.18H557.892L549.881 1025H547.154L539.142 1003.18H541.912ZM561.111 1025V1003.18H568.483C570.195 1003.18 571.594 1003.49 572.68 1004.11 573.774 1004.72 574.584 1005.55 575.109 1006.59 575.635 1007.63 575.898 1008.8 575.898 1010.09 575.898 1011.37 575.635 1012.54 575.109 1013.59 574.591 1014.64 573.788 1015.48 572.702 1016.1 571.615 1016.72 570.223 1017.03 568.526 1017.03H563.242V1014.69H568.44C569.612 1014.69 570.553 1014.49 571.264 1014.08 571.974 1013.68 572.489 1013.13 572.808 1012.44 573.135 1011.74 573.298 1010.96 573.298 1010.09 573.298 1009.21 573.135 1008.43 572.808 1007.74 572.489 1007.05 571.97 1006.51 571.253 1006.12 570.536 1005.72 569.584 1005.53 568.398 1005.53H563.753V1025H561.111ZM597.275 1003.18V1025H594.718L582.829 1007.87H582.616V1025H579.974V1003.18H582.531L594.462 1020.36H594.676V1003.18H597.275Z" fill="#000000"/><path d="M690.96 1003.18H693.602V1017.63C693.602 1019.12 693.251 1020.45 692.548 1021.62 691.852 1022.79 690.868 1023.71 689.597 1024.38 688.325 1025.05 686.834 1025.38 685.122 1025.38 683.411 1025.38 681.919 1025.05 680.648 1024.38 679.376 1023.71 678.389 1022.79 677.686 1021.62 676.99 1020.45 676.642 1019.12 676.642 1017.63V1003.18H679.284V1017.41C679.284 1018.48 679.518 1019.43 679.987 1020.26 680.456 1021.08 681.124 1021.73 681.99 1022.21 682.864 1022.68 683.908 1022.91 685.122 1022.91 686.337 1022.91 687.381 1022.68 688.254 1022.21 689.128 1021.73 689.795 1021.08 690.257 1020.26 690.726 1019.43 690.96 1018.48 690.96 1017.41V1003.18ZM709.948 1012.3 707.69 1012.94C707.548 1012.56 707.338 1012.2 707.061 1011.84 706.791 1011.48 706.422 1011.18 705.953 1010.95 705.485 1010.71 704.884 1010.6 704.153 1010.6 703.151 1010.6 702.317 1010.83 701.649 1011.29 700.989 1011.74 700.659 1012.32 700.659 1013.03 700.659 1013.65 700.886 1014.14 701.34 1014.51 701.795 1014.87 702.505 1015.17 703.471 1015.41L705.9 1016.01C707.363 1016.36 708.453 1016.91 709.171 1017.64 709.888 1018.36 710.247 1019.3 710.247 1020.44 710.247 1021.38 709.977 1022.22 709.437 1022.95 708.904 1023.69 708.159 1024.28 707.2 1024.7 706.241 1025.13 705.126 1025.34 703.855 1025.34 702.186 1025.34 700.804 1024.98 699.71 1024.25 698.617 1023.53 697.924 1022.47 697.633 1021.08L700.019 1020.48C700.247 1021.36 700.676 1022.02 701.308 1022.46 701.948 1022.9 702.782 1023.12 703.812 1023.12 704.984 1023.12 705.914 1022.88 706.603 1022.38 707.299 1021.87 707.647 1021.27 707.647 1020.57 707.647 1020 707.448 1019.52 707.051 1019.14 706.653 1018.75 706.042 1018.46 705.218 1018.27L702.491 1017.63C700.992 1017.27 699.892 1016.72 699.188 1015.98 698.492 1015.22 698.144 1014.28 698.144 1013.15 698.144 1012.23 698.404 1011.41 698.922 1010.7 699.448 1009.99 700.161 1009.44 701.063 1009.03 701.973 1008.63 703.002 1008.42 704.153 1008.42 705.772 1008.42 707.044 1008.78 707.967 1009.49 708.897 1010.2 709.558 1011.14 709.948 1012.3ZM720.712 1025.34C719.135 1025.34 717.775 1024.99 716.632 1024.3 715.495 1023.59 714.618 1022.61 714 1021.36 713.39 1020.09 713.084 1018.62 713.084 1016.95 713.084 1015.27 713.39 1013.79 714 1012.51 714.618 1011.23 715.478 1010.23 716.579 1009.51 717.687 1008.79 718.979 1008.42 720.456 1008.42 721.309 1008.42 722.15 1008.57 722.981 1008.85 723.812 1009.13 724.569 1009.6 725.25 1010.23 725.932 1010.87 726.476 1011.7 726.88 1012.75 727.285 1013.79 727.488 1015.08 727.488 1016.61V1017.67H714.874V1015.5H724.931C724.931 1014.57 724.746 1013.75 724.377 1013.03 724.015 1012.3 723.496 1011.73 722.821 1011.31 722.154 1010.89 721.365 1010.68 720.456 1010.68 719.455 1010.68 718.589 1010.93 717.857 1011.43 717.133 1011.92 716.575 1012.56 716.184 1013.35 715.794 1014.13 715.598 1014.98 715.598 1015.88V1017.33C715.598 1018.57 715.812 1019.61 716.238 1020.47 716.671 1021.32 717.271 1021.97 718.038 1022.42 718.805 1022.86 719.696 1023.08 720.712 1023.08 721.373 1023.08 721.969 1022.99 722.502 1022.81 723.042 1022.61 723.507 1022.33 723.897 1021.95 724.288 1021.57 724.59 1021.09 724.803 1020.53L727.232 1021.21C726.976 1022.03 726.547 1022.76 725.943 1023.38 725.339 1024 724.593 1024.48 723.706 1024.83 722.818 1025.17 721.82 1025.34 720.712 1025.34ZM740.626 1003.18 747.103 1021.55H747.358L753.836 1003.18H756.606L748.594 1025H745.867L737.856 1003.18H740.626ZM759.824 1025V1003.18H767.196C768.908 1003.18 770.307 1003.49 771.394 1004.11 772.487 1004.72 773.297 1005.55 773.823 1006.59 774.348 1007.63 774.611 1008.8 774.611 1010.09 774.611 1011.37 774.348 1012.54 773.823 1013.59 773.304 1014.64 772.502 1015.48 771.415 1016.1 770.328 1016.72 768.936 1017.03 767.239 1017.03H761.955V1014.69H767.154C768.325 1014.69 769.267 1014.49 769.977 1014.08 770.687 1013.68 771.202 1013.13 771.522 1012.44 771.848 1011.74 772.012 1010.96 772.012 1010.09 772.012 1009.21 771.848 1008.43 771.522 1007.74 771.202 1007.05 770.683 1006.51 769.966 1006.12 769.249 1005.72 768.297 1005.53 767.111 1005.53H762.466V1025H759.824ZM795.988 1003.18V1025H793.431L781.542 1007.87H781.329V1025H778.687V1003.18H781.244L793.176 1020.36H793.389V1003.18H795.988Z" fill="#000000"/></svg>